<?xml version="1.0" encoding="UTF-8" standalone="no"?>
<!-- Created with Inkscape (http://www.inkscape.org/) -->

<svg
   width="512"
   height="512"
   viewBox="0 0 135.46666 135.46667"
   version="1.1"
   id="svg1488"
   sodipodi:docname="asteroid5.svg"
   inkscape:version="1.1.2 (0a00cf5339, 2022-02-04)"
   xmlns:inkscape="http://www.inkscape.org/namespaces/inkscape"
   xmlns:sodipodi="http://sodipodi.sourceforge.net/DTD/sodipodi-0.dtd"
   xmlns="http://www.w3.org/2000/svg"
   xmlns:svg="http://www.w3.org/2000/svg">
  <sodipodi:namedview
     id="namedview1490"
     pagecolor="#ffffff"
     bordercolor="#666666"
     borderopacity="1.0"
     inkscape:pageshadow="2"
     inkscape:pageopacity="0.0"
     inkscape:pagecheckerboard="0"
     inkscape:document-units="mm"
     showgrid="false"
     units="px"
     width="512px"
     inkscape:zoom="1.0570195"
     inkscape:cx="101.70106"
     inkscape:cy="253.5431"
     inkscape:window-width="1856"
     inkscape:window-height="1011"
     inkscape:window-x="64"
     inkscape:window-y="32"
     inkscape:window-maximized="0"
     inkscape:current-layer="layer3" />
  <defs
     id="defs1485" />
  <g
     inkscape:groupmode="layer"
     id="layer2"
     inkscape:label="Asteroid"
     style="display:inline" />
  <g
     inkscape:groupmode="layer"
     id="layer3"
     inkscape:label="Holes"
     style="display:inline">
    <path
       style="display:inline;fill:#000000;fill-opacity:1;stroke:#000000;stroke-width:0.264583px;stroke-linecap:butt;stroke-linejoin:miter;stroke-opacity:1"
       d="m 23.540524,34.160309 c 1.769964,-11.327771 10.088795,-7.787842 10.088795,-7.787842 5.486889,-2.300954 7.256855,-2.654946 8.849823,-4.247914 10.619785,-0.884982 11.52584,-5.011398 13.80572,-6.371871 9.38081,-0.176996 8.318833,-4.601908 14.513708,-5.8408825 9.026818,1.9469605 18.76162,1.4159715 18.76162,1.4159715 l 3.185935,0.884982 c -0.353993,3.893921 6.548869,5.132896 6.548869,5.132896 l 4.247916,4.601907 c 3.36293,3.008939 7.07985,10.088797 7.07985,10.088797 l 2.47795,5.132895 0.53099,4.070919 c 0.177,0.884982 2.30096,1.769965 2.30096,1.769965 l 1.59296,1.94696 0.88499,1.94696 1.06197,2.300954 1.76997,3.539927 1.06198,3.008939 1.94696,6.725864 c 1.23897,10.619787 1.23897,10.796784 1.23897,10.796784 l -1.23897,4.247914 c 4.07092,9.203814 0,13.805721 0,13.805721 l -5.1329,5.132896 c 0,0 -3.89392,4.424909 -7.61084,6.725869 -1.06198,1.23897 -7.43385,10.79678 -16.106677,17.69964 -3.362932,0.53099 -6.371871,3.53993 -6.371871,3.53993 0,0 -0.884983,1.76996 -4.955901,2.30095 0,0 -2.831942,-0.53099 -6.017878,0.53099 -7.787843,-2.83194 -9.734803,-3.71692 -15.398689,-1.41597 -5.486889,-2.12396 -7.787842,-4.9559 -10.619785,-4.9559 -6.725864,-6.01788 -8.849822,-3.53993 -13.628725,-6.01788 -9.734803,-12.74374 1.061979,-10.0888 -15.929678,-15.221693 0,0 -3.008939,-8.318832 -5.309893,-8.849821 l -4.42491,-5.132897 c 0.530989,-3.362932 -1.592968,-6.017878 -1.592968,-6.017878 0,0 -1.4159717,-1.94696 -2.3009538,-3.893921 C 7.7878427,71.683552 9.203814,64.780692 9.0268176,63.187724 10.088796,60.532778 11.85876,55.045888 11.85876,53.275924 13.805721,50.620978 17.699642,42.833135 17.699642,42.833135 l 2.47795,-2.47795 c 2.831943,-4.424911 3.362932,-6.194876 3.362932,-6.194876 z"
       id="path1566"
       sodipodi:nodetypes="ccccccccccccccccccccccccccccccccccccccccc" />
    <path
       style="display:inline;fill:#ffffff;fill-opacity:1;stroke:#000000;stroke-width:0.264583px;stroke-linecap:butt;stroke-linejoin:miter;stroke-opacity:1"
       d="m 34.160309,59.515046 2.212456,-1.94696 3.097438,-1.769965 1.94696,-1.681464 3.185935,0.176996 3.185935,1.94696 1.769965,-0.265493 1.504471,0.353991 1.94696,-0.796483 4.336412,2.035458 0.353992,0.796483 1.946963,0.707988 0.707985,1.238975 c 4.690405,4.867402 1.592968,11.77026 1.150477,12.124253 0,0 -0.707985,1.150477 -1.858462,1.150477 0,0 -0.707988,1.061979 -0.884984,1.858463 l -0.265494,3.451431 c 0.01219,1.841153 -2.300954,1.356972 -3.451431,2.035458 -1.50447,4.778903 -6.637367,1.327473 -9.734804,0 -1.327473,0.97348 -3.165044,-0.530989 -3.362931,-0.530989 -1.681468,0 -2.920442,-2.920442 -3.451431,-4.247915 -0.884982,-1.858462 -1.327473,-4.690404 -1.327473,-4.690404 -0.176996,0 -1.327472,-3.185935 -1.327472,-3.185935 -2.566448,-1.327473 -2.831944,-6.106377 -2.831944,-6.106377 z"
       id="path92684"
       sodipodi:nodetypes="cccccccccccccccccccsccccc" />
    <path
       style="fill:#ffffff;fill-opacity:1;stroke:#000000;stroke-width:0.264583px;stroke-linecap:butt;stroke-linejoin:miter;stroke-opacity:1"
       d="m 74.913735,67.568383 c -0.0885,0.265496 0.0885,2.566451 0.0885,2.566451 0.741734,0.85467 0,1.504468 0,1.504468 0,0 0.530991,1.504469 1.327475,1.94696 0.442491,1.946961 2.831942,2.47795 2.831942,2.47795 1.327473,0.884982 4.070918,1.681467 4.070918,1.681467 1.150477,0.97348 4.867402,0.442492 4.867402,0.442492 2.831943,-0.619487 3.772651,-1.300595 4.336413,-2.831944 0.396921,-1.078158 0.176995,-2.123956 0.176995,-2.123956 0.0885,-0.796484 -0.0885,-1.592967 -0.619487,-1.858462 -2.123957,-0.530989 -3.274433,-3.805426 -3.274433,-3.805426 -0.353993,-1.592968 -2.831944,-2.477948 -2.831944,-2.477948 -0.796484,-1.061979 -2.035458,-0.884983 -2.035458,-0.884983 -1.415971,-0.530989 -2.47795,-0.442491 -2.47795,-0.442491 -0.97348,0.442491 -1.327474,1.061979 -1.681467,1.061979 -0.530989,0.0885 -2.123956,-0.0885 -2.123956,-0.0885 l -0.796485,0.0885 c -1.238975,0.0885 -1.858465,2.743443 -1.858465,2.743443 z"
       id="path145847"
       sodipodi:nodetypes="cccccccscccccccccc" />
    <path
       style="fill:#ffffff;fill-opacity:1;stroke:#000000;stroke-width:0.264583px;stroke-linecap:butt;stroke-linejoin:miter;stroke-opacity:1"
       d="m 68.32062,85.13528 c 2.831943,0 5.486887,3.539926 5.486887,3.539926 1.592968,1.769964 0.707987,4.955902 0.176998,5.663888 0,0 -3.362933,0.353992 -4.778904,-1.061979 -1.415971,-1.769964 -1.94696,-6.548867 -0.884981,-8.141835 z"
       id="path255247"
       sodipodi:nodetypes="ccccc" />
    <path
       style="fill:#ffffff;fill-opacity:1;stroke:#000000;stroke-width:0.264583px;stroke-linecap:butt;stroke-linejoin:miter;stroke-opacity:1"
       d="m 60.709772,95.401071 3.00894,1.592969 1.94696,3.00894 1.238975,6.01788 c 0,0 -0.88498,2.47795 -2.831941,2.83194 0,0 -4.070919,-2.12395 -5.48689,-5.30989 0,0 -0.884983,-2.30096 -0.353994,-4.955902 0,0 1.061979,-3.716926 2.47795,-3.185937 z"
       id="path255249"
       sodipodi:nodetypes="cccccccc" />
    <path
       style="fill:#ffffff;fill-opacity:1;stroke:#000000;stroke-width:0.265;stroke-linecap:butt;stroke-linejoin:miter;stroke-miterlimit:4;stroke-dasharray:none;stroke-opacity:1"
       d="m 39.647198,78.23242 c 0,0 -0.530989,2.654945 -3.716925,4.070916 -1.592968,1.415971 -4.955899,1.238975 -4.955899,1.238975 0,0 -1.946961,-3.362931 -3.00894,-5.663885 0,0 -2.831942,-1.061978 -5.132896,-2.654946 0,0 -2.123957,0 -2.123957,-6.194875 0,0 -0.680217,-2.863083 -0.353993,-5.486889 0.393694,-3.166469 2.47795,-6.90286 2.47795,-6.90286 0.176996,-1.592968 1.946962,-3.008939 3.362933,-3.185935 0,0 3.185936,-1e-6 3.893922,0.884981 1.769964,3.716925 2.920439,7.832092 2.920439,7.832092 l 2.831944,6.106377 1.327472,3.185933 z"
       id="path255251"
       sodipodi:nodetypes="ccccccsccccccc" />
    <path
       style="fill:#ffffff;fill-opacity:1;stroke:#000000;stroke-width:0.264583px;stroke-linecap:butt;stroke-linejoin:miter;stroke-opacity:1"
       d="m 90.622169,85.312275 c 0.353991,0 4.9559,-0.176998 6.725864,2.123956 1.061979,2.123957 -1.415973,3.362934 -1.415973,3.362934 -4.424911,0.353993 -5.309891,-5.48689 -5.309891,-5.48689 z"
       id="path255253"
       sodipodi:nodetypes="cccc" />
    <path
       style="fill:#ffffff;fill-opacity:1;stroke:#000000;stroke-width:0.264583px;stroke-linecap:butt;stroke-linejoin:miter;stroke-opacity:1"
       d="m 22.832538,75.22348 c 0.176996,1.769964 0.707986,4.247913 1.415972,6.017877 0.176996,1.061979 1.41597,2.300954 2.654945,2.654947 0.707985,1.415971 4.070919,-0.353993 4.070919,-0.353993 0,0 -1.946961,-4.42491 -3.00894,-5.663885 -0.707986,-1.415971 -5.132896,-2.654946 -5.132896,-2.654946 z"
       id="path255255"
       sodipodi:nodetypes="cccccc" />
    <path
       style="fill:#ffffff;fill-opacity:1;stroke:#000000;stroke-width:0.264583px;stroke-linecap:butt;stroke-linejoin:miter;stroke-opacity:1"
       d="m 65.080792,25.531696 c 8.510566,0.25031 10.26274,0.750932 13.516782,4.505592 3.254039,3.754663 7.509322,7.008701 9.011184,10.26274 1.501865,3.254042 1.001244,7.759634 -0.250309,8.009946 -1.251553,0.250309 0.750933,0.750932 -2.002486,1.501862 -2.753418,0.750933 -6.50808,2.252798 -6.007459,3.254042 0.500623,1.001241 1.752176,2.252795 0.750932,3.003727 -1.001241,0.750932 0.500624,3.254042 -4.004971,3.254042 -4.505592,0 -8.009943,0.750932 -9.261496,-1.251556 -1.251554,-2.002486 -6.75839,-0.250309 -7.008702,-2.753418 -0.250311,-2.503107 -5.506836,-4.004972 -5.506836,-5.506837 0,-1.501862 -1.001244,-4.25528 0.250312,-7.008698 1.251553,-2.753419 0.50062,-3.00373 2.252794,-6.75839 1.752177,-3.754662 1.752177,-5.757148 2.753419,-7.008701 1.001244,-1.251554 0.750932,-2.252798 2.252797,-2.753419 1.501865,-0.500622 2.252797,-1.251554 3.254039,-0.750932 z"
       id="path263006" />
  </g>
</svg>
