<svg style="height: 512px; width: 512px;" xmlns="http://www.w3.org/2000/svg" viewBox="0 0 512 512"><g class="" style="" transform="translate(0,0)"><g><path d="M134.594 73.375C117.072 79.025 103.362 85.229 86.469 97.625C84.279 99.722 82.132 101.845 80.029 104.031C80.269 104.597 80.639 105.296 81.186 106.281C82.202 108.113 83.953 110.304 86.156 112.471C82.702 118.007 79.56 123.543 76.656 129.095C72.992 126.055 69.704 122.672 67.062 118.875C59.445 128.38 52.587 138.553 46.624 149.315C47.019 150.951 48.181 152.735 50.404 155.125C53.06 157.978 57.209 160.925 62.03 163.439C60.006 169.556 58.27 175.643 56.844 181.719C49.404 178.339 42.599 173.951 37.25 168.376C31.31 182.18 26.777 196.796 23.844 212.032C25.179 214.466 27.558 216.695 31.156 219.064C36.228 222.404 43.516 225.14 51.438 226.721C51.393 233.158 51.688 239.543 52.25 245.845C40.843 244.172 29.845 240.597 20.875 234.689C20.825 234.655 20.769 234.629 20.719 234.595C19.409 250.185 19.847 265.555 21.812 280.501C24.122 283.981 27.988 286.458 33.749 288.439C41.155 290.985 51.221 291.783 61.469 290.751C63.469 296.873 65.744 302.881 68.279 308.751C54.309 310.849 40.042 310.373 27.686 306.126C27.349 306.01 27.021 305.874 26.686 305.751C30.664 321.241 36.346 336.121 43.53 350.157C47.083 352.961 51.88 354.373 58.25 354.813C67.55 355.457 79.394 353.083 90.688 348.47C94.4 353.727 98.318 358.81 102.438 363.72C87.868 370.435 72.078 374.395 57.375 373.47C67.327 388.072 79.013 401.434 92.219 413.22C96.479 414.666 101.519 414.685 107.593 413.5C117.193 411.627 128.448 406.096 138.623 398.5C138.631 398.505 138.649 398.495 138.655 398.5C143.809 402.478 149.131 406.25 154.561 409.75C142.585 419.66 128.936 427.446 115.031 430.97C126.685 438.85 139.179 445.64 152.374 451.156C157.311 451.579 162.664 450.196 168.718 447.25C176.39 443.515 184.498 436.998 191.748 428.97C208.784 435.753 226.48 440.19 244.311 441.875L246.091 423.25C231.823 421.9 217.507 418.48 203.529 413.312C210.412 402.204 215.139 390.139 216.469 379.875C217.647 370.761 216.552 363.718 212.687 358.437C204.607 356.857 196.797 354.497 189.312 351.437C189.14 357.907 187.606 364.424 185.092 370.531C181.347 379.634 175.572 388.329 168.562 396.251C163.209 392.963 157.997 389.419 152.905 385.626C159.525 378.444 164.828 370.656 167.811 363.406C171.617 354.16 171.984 346.828 168.436 340.596C160.688 335.639 153.433 329.859 146.718 323.376C144.945 327.676 142.531 331.746 139.686 335.47C134.21 342.635 127.114 348.98 119.123 354.375C115.003 349.655 111.071 344.772 107.373 339.687C114.525 334.993 120.669 329.587 124.843 324.125C129.881 317.531 132.063 311.715 131.311 306.031C126.335 299.478 121.817 292.449 117.811 285.031C115.526 287.717 112.951 290.171 110.154 292.314C103.396 297.489 95.356 301.469 86.748 304.344C84.153 298.654 81.791 292.846 79.748 286.907C87.175 284.502 93.878 281.224 98.778 277.47C104.474 273.108 107.58 268.925 108.31 264.22C105.28 256.222 102.802 247.9 100.904 239.312C99.026 240.387 97.084 241.336 95.092 242.125C87.642 245.072 79.342 246.559 70.812 246.875C70.15 240.715 69.785 234.472 69.779 228.155C76.736 227.892 83.243 226.718 88.219 224.75C92.819 222.93 95.814 220.95 97.562 218.5C96.544 208.78 96.232 198.81 96.749 188.687C96.099 188.791 95.459 188.867 94.811 188.937C88.187 189.662 81.255 189.087 74.405 187.594C75.775 181.614 77.475 175.584 79.499 169.531C84.369 170.464 89.037 170.754 92.779 170.345C95.393 170.059 97.311 169.589 98.779 168.939C100.174 160.009 102.186 151.295 104.749 142.907C100.567 142.171 96.465 140.815 92.499 139.032C95.333 133.575 98.425 128.104 101.843 122.627C104.257 123.59 106.559 124.292 108.53 124.597C109.637 124.767 110.553 124.862 111.312 124.877C113.258 120.237 115.334 115.707 117.594 111.314C123.492 99.512 130.009 87.064 134.594 73.377Z" class="selected" fill="#000000" fill-opacity="1"></path><path d="M378.969 73.375C383.552 87.061 390.069 99.51 395.969 111.313C398.229 115.706 400.335 120.236 402.279 124.875C403.031 124.859 403.939 124.762 405.029 124.595C407.009 124.289 409.325 123.595 411.749 122.625C415.167 128.102 418.259 133.573 421.093 139.031C417.117 140.817 412.997 142.171 408.813 142.907C411.376 151.297 413.386 160.007 414.78 168.937C416.254 169.595 418.184 170.057 420.813 170.345C424.555 170.755 429.223 170.465 434.093 169.532C436.119 175.595 437.785 181.636 439.156 187.627C432.319 189.114 425.394 189.663 418.781 188.94C418.125 188.868 417.473 188.795 416.814 188.69C417.331 198.814 417.05 208.782 416.032 218.502C417.782 220.952 420.777 222.932 425.377 224.752C430.344 226.717 436.839 227.892 443.783 228.158C443.777 234.474 443.413 240.718 442.753 246.878C434.233 246.558 425.945 245.07 418.503 242.128C416.509 241.338 414.57 240.388 412.69 239.314C410.795 247.889 408.307 256.204 405.284 264.189C405.999 268.909 409.079 273.101 414.784 277.471C419.688 281.224 426.389 284.501 433.817 286.907C431.773 292.847 429.412 298.654 426.817 304.345C418.219 301.47 410.193 297.483 403.442 292.315C400.638 290.167 398.042 287.723 395.754 285.032C391.744 292.454 387.234 299.476 382.254 306.032C381.494 311.714 383.684 317.534 388.724 324.127C392.892 329.584 399.037 334.997 406.191 339.69C402.494 344.775 398.561 349.656 394.441 354.377C386.451 348.981 379.355 342.637 373.879 335.471C371.041 331.756 368.645 327.693 366.879 323.407C360.169 329.885 352.903 335.643 345.159 340.595C341.612 346.828 341.979 354.16 345.785 363.407C348.77 370.657 354.073 378.444 360.693 385.627C355.598 389.422 350.36 392.961 345.005 396.251C338.002 388.329 332.251 379.634 328.505 370.531C325.992 364.425 324.458 357.908 324.285 351.439C316.788 354.503 308.972 356.857 300.88 358.439C297.007 363.719 295.92 370.763 297.1 379.876C298.427 390.14 303.18 402.206 310.067 413.314C296.093 418.482 281.774 421.901 267.505 423.251L269.255 441.876C287.095 440.189 304.801 435.76 321.849 428.97C329.099 436.998 337.207 443.515 344.879 447.25C350.935 450.197 356.287 451.58 361.224 451.156C374.424 445.639 386.908 438.854 398.566 430.969C384.67 427.449 371.004 419.676 359.036 409.779C364.478 406.275 369.776 402.486 374.942 398.499C385.122 406.103 396.398 411.625 406.004 413.499C412.06 414.681 417.094 414.684 421.348 413.249C434.56 401.461 446.268 388.077 456.223 373.469C441.518 374.394 425.697 370.434 411.128 363.719C415.248 358.806 419.194 353.729 422.908 348.469C434.203 353.079 446.046 355.455 455.348 354.811C461.716 354.371 466.514 352.959 470.065 350.155C477.248 336.119 482.932 321.238 486.909 305.749C486.574 305.872 486.246 306.009 485.909 306.124C473.554 310.371 459.286 310.847 445.315 308.749C447.851 302.879 450.128 296.871 452.128 290.749C462.364 291.776 472.418 290.979 479.816 288.436C485.581 286.456 489.466 283.981 491.784 280.499C493.749 265.553 494.156 250.181 492.848 234.593C492.805 234.621 492.766 234.658 492.723 234.687C483.753 240.595 472.753 244.17 461.347 245.843C461.91 239.541 462.203 233.156 462.159 226.718C470.079 225.136 477.369 222.401 482.439 219.061C486.032 216.695 488.385 214.457 489.722 212.029C486.788 196.795 482.252 182.177 476.314 168.374C470.967 173.944 464.181 178.334 456.752 181.718C455.325 175.64 453.59 169.553 451.564 163.436C456.369 160.923 460.506 157.972 463.158 155.123C465.37 152.747 466.56 150.973 466.971 149.343C461.001 138.569 454.157 128.388 446.531 118.873C443.889 122.669 440.601 126.053 436.939 129.093C434.034 123.54 430.892 118.003 427.439 112.467C429.647 110.301 431.392 108.107 432.407 106.277C432.945 105.307 433.327 104.621 433.563 104.059C431.457 101.866 429.288 99.725 427.095 97.622C410.202 85.226 396.492 79.022 378.97 73.372Z" class="" fill="#000000" fill-opacity="1"></path></g></g></svg>
